<svg viewBox="0 0 800 800" xmlns="http://www.w3.org/2000/svg"><path d="M716.237386329314,156.33312327659803 L724.2608496593555,142.43607713630036 M732.4078958273612,147.13977643449874 L716.237386329314,156.33312327659803 M732.4078958273612,147.13977643449874 L732.469443572099,156.4034731664886 M732.469443572099,156.4034731664886 L-25.5941884088287,588.5325444189598 M-26.784791981969533,578.7601715655003 L-25.5941884088287,588.5325444189598 M-6.472226969039866,567.2119605806143 L-26.784791981969533,578.7601715655003 M-17.7908253058838,563.1821529592248 L-6.472226969039866,567.2119605806143 M724.2608496593555,142.43607713630036 L-17.7908253058838,563.1821529592248 M818.7629609595654,196.99689653446455 L810.6136450224225,211.11192578452693 M724.2608496593555,142.43607713630036 L818.7629609595654,196.99689653446455 M810.6136450224225,211.11192578452693 L716.237386329314,156.33312327659803 M826.7847919819695,201.62830283464325 L732.4078958273612,147.13977643449874 M810.6136450224225,211.11192578452693 L826.7847919819695,201.62830283464325 M826.7213048198194,210.96397989068038 L826.7847919819695,201.62830283464325 M732.469443572099,156.4034731664886 L826.7213048198194,210.96397989068038 M826.7213048198194,210.96397989068038 L67.19085128960216,657.5639228636996 M-25.5941884088287,588.5325444189598 L67.19085128960216,657.5639228636996 M66.118951708532,647.7233162592029 L-26.784791981969533,578.7601715655003 M67.19085128960216,657.5639228636996 L66.118951708532,647.7233162592029 M66.118951708532,647.7233162592029 L86.50940151403108,635.7652691140239 M86.50940151403108,635.7652691140239 L-6.472226969039866,567.2119605806143 M75.27135904235752,631.8708705153248 L-17.7908253058838,563.1821529592248 M86.50940151403108,635.7652691140239 L75.27135904235752,631.8708705153248 M818.7629609595654,196.99689653446455 L75.27135904235752,631.8708705153248" stroke="black"  stroke-width="4"  fill="red"/></svg>